{
	"asset":{
		"generator":"Khronos glTF Blender I/O v5.1.19",
		"version":"2.0"
	},
	"scene":0,
	"scenes":[
		{
			"name":"Scene",
			"nodes":[
				0,
				1,
				2,
				3,
				4,
				5,
				6,
				7,
				8
			]
		}
	],
	"nodes":[
		{
			"mesh":0,
			"name":"Cube",
			"rotation":[
				0,
				1,
				0,
				7.549790836947068e-08
			],
			"scale":[
				0.6000000238418579,
				0.6000000238418579,
				0.6000000238418579
			],
			"translation":[
				0.049000658094882965,
				0.5666666626930237,
				-0.21999984979629517
			]
		},
		{
			"mesh":1,
			"name":"\u5186\u67f1.001",
			"rotation":[
				-0.7071068286895752,
				0,
				0,
				0.7071068286895752
			],
			"scale":[
				0.05328884348273277,
				0.05328884348273277,
				0.05328884348273277
			],
			"translation":[
				0.04543489217758179,
				0.12546028196811676,
				-1.7865662574768066
			]
		},
		{
			"mesh":2,
			"name":"\u5186\u67f1.002",
			"rotation":[
				-0.7071068286895752,
				0,
				0,
				0.7071068286895752
			],
			"scale":[
				0.05328884348273277,
				0.05328884348273277,
				0.05328884348273277
			],
			"translation":[
				-0.0722227394580841,
				0.19298505783081055,
				-1.7865662574768066
			]
		},
		{
			"mesh":3,
			"name":"\u5186\u67f1.003",
			"rotation":[
				-0.7071068286895752,
				0,
				0,
				0.7071068286895752
			],
			"scale":[
				0.05328884348273277,
				0.05328884348273277,
				0.05328884348273277
			],
			"translation":[
				-0.0722227394580841,
				0.32133549451828003,
				-1.7865662574768066
			]
		},
		{
			"mesh":4,
			"name":"\u5186\u67f1.004",
			"rotation":[
				-0.7071068286895752,
				0,
				0,
				0.7071068286895752
			],
			"scale":[
				0.05328884348273277,
				0.05328884348273277,
				0.05328884348273277
			],
			"translation":[
				0.17149530351161957,
				0.32133549451828003,
				-1.7865662574768066
			]
		},
		{
			"mesh":5,
			"name":"\u5186\u67f1.005",
			"rotation":[
				-0.7071068286895752,
				0,
				0,
				0.7071068286895752
			],
			"scale":[
				0.05328884348273277,
				0.05328884348273277,
				0.05328884348273277
			],
			"translation":[
				0.17049333453178406,
				0.19298505783081055,
				-1.7865662574768066
			]
		},
		{
			"mesh":6,
			"name":"\u5186\u67f1.006",
			"rotation":[
				-0.7071068286895752,
				0,
				0,
				0.7071068286895752
			],
			"scale":[
				0.05328884348273277,
				0.05328884348273277,
				0.05328884348273277
			],
			"translation":[
				0.04543489217758179,
				0.39273369312286377,
				-1.7865662574768066
			]
		},
		{
			"mesh":7,
			"name":"\u5186\u67f1",
			"rotation":[
				-0.7071067690849304,
				0,
				0,
				0.7071068286895752
			],
			"scale":[
				0.20752300322055817,
				0.20752300322055817,
				0.20752300322055817
			],
			"translation":[
				0.05531632527709007,
				0.2578798532485962,
				-2.0257506370544434
			]
		},
		{
			"mesh":8,
			"name":"\u5186\u67f1.007",
			"rotation":[
				-0.7071067690849304,
				0,
				0,
				0.7071068286895752
			],
			"scale":[
				0.20752300322055817,
				0.20752300322055817,
				0.20752300322055817
			],
			"translation":[
				0.05531632527709007,
				0.2578798532485962,
				-1.8376983404159546
			]
		}
	],
	"materials":[
		{
			"doubleSided":true,
			"name":"Material",
			"pbrMetallicRoughness":{
				"baseColorFactor":[
					0,
					0,
					1,
					1
				],
				"metallicFactor":0,
				"roughnessFactor":0.5
			}
		},
		{
			"doubleSided":true,
			"name":"\u30de\u30c6\u30ea\u30a2\u30eb",
			"pbrMetallicRoughness":{
				"baseColorFactor":[
					0.07324131578207016,
					0.07324056327342987,
					0.07324004173278809,
					1
				],
				"metallicFactor":0,
				"roughnessFactor":0.5
			}
		},
		{
			"doubleSided":true,
			"name":"\u30de\u30c6\u30ea\u30a2\u30eb.001",
			"pbrMetallicRoughness":{
				"baseColorFactor":[
					0.03310215473175049,
					0.03310307487845421,
					0.03310399502515793,
					1
				],
				"metallicFactor":0,
				"roughnessFactor":0.5
			}
		}
	],
	"meshes":[
		{
			"name":"Cube",
			"primitives":[
				{
					"attributes":{
						"POSITION":0,
						"NORMAL":1,
						"TEXCOORD_0":2
					},
					"indices":3,
					"material":0
				}
			]
		},
		{
			"name":"\u5186\u67f1.002",
			"primitives":[
				{
					"attributes":{
						"POSITION":4,
						"NORMAL":5,
						"TEXCOORD_0":6
					},
					"indices":7,
					"material":1
				}
			]
		},
		{
			"name":"\u5186\u67f1.003",
			"primitives":[
				{
					"attributes":{
						"POSITION":8,
						"NORMAL":9,
						"TEXCOORD_0":10
					},
					"indices":7,
					"material":1
				}
			]
		},
		{
			"name":"\u5186\u67f1.004",
			"primitives":[
				{
					"attributes":{
						"POSITION":11,
						"NORMAL":12,
						"TEXCOORD_0":13
					},
					"indices":7,
					"material":1
				}
			]
		},
		{
			"name":"\u5186\u67f1.005",
			"primitives":[
				{
					"attributes":{
						"POSITION":14,
						"NORMAL":15,
						"TEXCOORD_0":16
					},
					"indices":7,
					"material":1
				}
			]
		},
		{
			"name":"\u5186\u67f1.006",
			"primitives":[
				{
					"attributes":{
						"POSITION":17,
						"NORMAL":18,
						"TEXCOORD_0":19
					},
					"indices":7,
					"material":1
				}
			]
		},
		{
			"name":"\u5186\u67f1.007",
			"primitives":[
				{
					"attributes":{
						"POSITION":20,
						"NORMAL":21,
						"TEXCOORD_0":22
					},
					"indices":7,
					"material":1
				}
			]
		},
		{
			"name":"\u5186\u67f1",
			"primitives":[
				{
					"attributes":{
						"POSITION":23,
						"NORMAL":24,
						"TEXCOORD_0":25
					},
					"indices":7,
					"material":2
				}
			]
		},
		{
			"name":"\u5186\u67f1.001",
			"primitives":[
				{
					"attributes":{
						"POSITION":26,
						"NORMAL":27,
						"TEXCOORD_0":28
					},
					"indices":7,
					"material":2
				}
			]
		}
	],
	"accessors":[
		{
			"bufferView":0,
			"componentType":5126,
			"count":24,
			"max":[
				1,
				0,
				1
			],
			"min":[
				-1,
				-1,
				-2
			],
			"type":"VEC3"
		},
		{
			"bufferView":1,
			"componentType":5126,
			"count":24,
			"type":"VEC3"
		},
		{
			"bufferView":2,
			"componentType":5126,
			"count":24,
			"type":"VEC2"
		},
		{
			"bufferView":3,
			"componentType":5123,
			"count":36,
			"type":"SCALAR"
		},
		{
			"bufferView":4,
			"componentType":5126,
			"count":192,
			"max":[
				1,
				6.629696369171143,
				1.0000016689300537
			],
			"min":[
				-1,
				-23.518783569335938,
				-1.0000004768371582
			],
			"type":"VEC3"
		},
		{
			"bufferView":5,
			"componentType":5126,
			"count":192,
			"type":"VEC3"
		},
		{
			"bufferView":6,
			"componentType":5126,
			"count":192,
			"type":"VEC2"
		},
		{
			"bufferView":7,
			"componentType":5123,
			"count":372,
			"type":"SCALAR"
		},
		{
			"bufferView":8,
			"componentType":5126,
			"count":192,
			"max":[
				1,
				6.629696369171143,
				1.0000016689300537
			],
			"min":[
				-1,
				-23.518783569335938,
				-1.0000004768371582
			],
			"type":"VEC3"
		},
		{
			"bufferView":9,
			"componentType":5126,
			"count":192,
			"type":"VEC3"
		},
		{
			"bufferView":10,
			"componentType":5126,
			"count":192,
			"type":"VEC2"
		},
		{
			"bufferView":11,
			"componentType":5126,
			"count":192,
			"max":[
				1,
				6.629696369171143,
				1.0000020265579224
			],
			"min":[
				-1,
				-27.271915435791016,
				-1.0000004768371582
			],
			"type":"VEC3"
		},
		{
			"bufferView":12,
			"componentType":5126,
			"count":192,
			"type":"VEC3"
		},
		{
			"bufferView":13,
			"componentType":5126,
			"count":192,
			"type":"VEC2"
		},
		{
			"bufferView":14,
			"componentType":5126,
			"count":192,
			"max":[
				1,
				6.629696369171143,
				1.0000020265579224
			],
			"min":[
				-1,
				-27.271915435791016,
				-1.0000004768371582
			],
			"type":"VEC3"
		},
		{
			"bufferView":15,
			"componentType":5126,
			"count":192,
			"type":"VEC3"
		},
		{
			"bufferView":16,
			"componentType":5126,
			"count":192,
			"type":"VEC2"
		},
		{
			"bufferView":17,
			"componentType":5126,
			"count":192,
			"max":[
				1,
				6.629696369171143,
				1.0000017881393433
			],
			"min":[
				-1,
				-25.39535140991211,
				-1.0000004768371582
			],
			"type":"VEC3"
		},
		{
			"bufferView":18,
			"componentType":5126,
			"count":192,
			"type":"VEC3"
		},
		{
			"bufferView":19,
			"componentType":5126,
			"count":192,
			"type":"VEC2"
		},
		{
			"bufferView":20,
			"componentType":5126,
			"count":192,
			"max":[
				1,
				6.629696369171143,
				1.0000020265579224
			],
			"min":[
				-1,
				-27.271915435791016,
				-1.0000004768371582
			],
			"type":"VEC3"
		},
		{
			"bufferView":21,
			"componentType":5126,
			"count":192,
			"type":"VEC3"
		},
		{
			"bufferView":22,
			"componentType":5126,
			"count":192,
			"type":"VEC2"
		},
		{
			"bufferView":23,
			"componentType":5126,
			"count":192,
			"max":[
				1,
				0.20044153928756714,
				1
			],
			"min":[
				-1,
				-0.2004418969154358,
				-1.0000001192092896
			],
			"type":"VEC3"
		},
		{
			"bufferView":24,
			"componentType":5126,
			"count":192,
			"type":"VEC3"
		},
		{
			"bufferView":25,
			"componentType":5126,
			"count":192,
			"type":"VEC2"
		},
		{
			"bufferView":26,
			"componentType":5126,
			"count":192,
			"max":[
				1,
				0.20044153928756714,
				1
			],
			"min":[
				-1,
				-0.2004418969154358,
				-1.0000001192092896
			],
			"type":"VEC3"
		},
		{
			"bufferView":27,
			"componentType":5126,
			"count":192,
			"type":"VEC3"
		},
		{
			"bufferView":28,
			"componentType":5126,
			"count":192,
			"type":"VEC2"
		}
	],
	"bufferViews":[
		{
			"buffer":0,
			"byteLength":288,
			"byteOffset":0,
			"target":34962
		},
		{
			"buffer":0,
			"byteLength":288,
			"byteOffset":288,
			"target":34962
		},
		{
			"buffer":0,
			"byteLength":192,
			"byteOffset":576,
			"target":34962
		},
		{
			"buffer":0,
			"byteLength":72,
			"byteOffset":768,
			"target":34963
		},
		{
			"buffer":0,
			"byteLength":2304,
			"byteOffset":840,
			"target":34962
		},
		{
			"buffer":0,
			"byteLength":2304,
			"byteOffset":3144,
			"target":34962
		},
		{
			"buffer":0,
			"byteLength":1536,
			"byteOffset":5448,
			"target":34962
		},
		{
			"buffer":0,
			"byteLength":744,
			"byteOffset":6984,
			"target":34963
		},
		{
			"buffer":0,
			"byteLength":2304,
			"byteOffset":7728,
			"target":34962
		},
		{
			"buffer":0,
			"byteLength":2304,
			"byteOffset":10032,
			"target":34962
		},
		{
			"buffer":0,
			"byteLength":1536,
			"byteOffset":12336,
			"target":34962
		},
		{
			"buffer":0,
			"byteLength":2304,
			"byteOffset":13872,
			"target":34962
		},
		{
			"buffer":0,
			"byteLength":2304,
			"byteOffset":16176,
			"target":34962
		},
		{
			"buffer":0,
			"byteLength":1536,
			"byteOffset":18480,
			"target":34962
		},
		{
			"buffer":0,
			"byteLength":2304,
			"byteOffset":20016,
			"target":34962
		},
		{
			"buffer":0,
			"byteLength":2304,
			"byteOffset":22320,
			"target":34962
		},
		{
			"buffer":0,
			"byteLength":1536,
			"byteOffset":24624,
			"target":34962
		},
		{
			"buffer":0,
			"byteLength":2304,
			"byteOffset":26160,
			"target":34962
		},
		{
			"buffer":0,
			"byteLength":2304,
			"byteOffset":28464,
			"target":34962
		},
		{
			"buffer":0,
			"byteLength":1536,
			"byteOffset":30768,
			"target":34962
		},
		{
			"buffer":0,
			"byteLength":2304,
			"byteOffset":32304,
			"target":34962
		},
		{
			"buffer":0,
			"byteLength":2304,
			"byteOffset":34608,
			"target":34962
		},
		{
			"buffer":0,
			"byteLength":1536,
			"byteOffset":36912,
			"target":34962
		},
		{
			"buffer":0,
			"byteLength":2304,
			"byteOffset":38448,
			"target":34962
		},
		{
			"buffer":0,
			"byteLength":2304,
			"byteOffset":40752,
			"target":34962
		},
		{
			"buffer":0,
			"byteLength":1536,
			"byteOffset":43056,
			"target":34962
		},
		{
			"buffer":0,
			"byteLength":2304,
			"byteOffset":44592,
			"target":34962
		},
		{
			"buffer":0,
			"byteLength":2304,
			"byteOffset":46896,
			"target":34962
		},
		{
			"buffer":0,
			"byteLength":1536,
			"byteOffset":49200,
			"target":34962
		}
	],
	"buffers":[
		{
			"byteLength":50736,
			"uri":"Gatling.bin"
		}
	]
}
