{
	"asset":{
		"generator":"Khronos glTF Blender I/O v5.1.20",
		"version":"2.0"
	},
	"scene":0,
	"scenes":[
		{
			"name":"Scene",
			"nodes":[
				25
			]
		}
	],
	"nodes":[
		{
			"mesh":0,
			"name":"WheelLeft"
		},
		{
			"mesh":1,
			"name":"WheelLeft.001"
		},
		{
			"mesh":2,
			"name":"WheelLeft.002"
		},
		{
			"mesh":3,
			"name":"WheelLeft.003"
		},
		{
			"mesh":4,
			"name":"WheelLeft.004"
		},
		{
			"mesh":5,
			"name":"WheelLeft.005"
		},
		{
			"mesh":6,
			"name":"WheelLeft.006"
		},
		{
			"mesh":7,
			"name":"WheelLeft.007"
		},
		{
			"mesh":8,
			"name":"WheelLeft.008"
		},
		{
			"mesh":9,
			"name":"WheelLeft.009"
		},
		{
			"mesh":10,
			"name":"WheelLeft.010"
		},
		{
			"children":[
				0,
				1,
				2,
				3,
				4,
				5,
				6,
				7,
				8,
				9,
				10
			],
			"mesh":11,
			"name":"TracksLeft"
		},
		{
			"mesh":12,
			"name":"WheelRight"
		},
		{
			"mesh":13,
			"name":"WheelRight.001"
		},
		{
			"mesh":14,
			"name":"WheelRight.002"
		},
		{
			"mesh":15,
			"name":"WheelRight.003"
		},
		{
			"mesh":16,
			"name":"WheelRight.004"
		},
		{
			"mesh":17,
			"name":"WheelRight.005"
		},
		{
			"mesh":18,
			"name":"WheelRight.006"
		},
		{
			"mesh":19,
			"name":"WheelRight.007"
		},
		{
			"mesh":20,
			"name":"WheelRight.008"
		},
		{
			"mesh":21,
			"name":"WheelRight.009"
		},
		{
			"children":[
				12,
				13,
				14,
				15,
				16,
				17,
				18,
				19,
				20,
				21
			],
			"mesh":22,
			"name":"TracksRight"
		},
		{
			"mesh":23,
			"name":"Barrel"
		},
		{
			"children":[
				23
			],
			"mesh":24,
			"name":"Turret"
		},
		{
			"children":[
				11,
				22,
				24
			],
			"mesh":25,
			"name":"Pz-VI-Tiger",
			"rotation":[
				0,
				1,
				0,
				7.549790126404332e-08
			]
		}
	],
	"materials":[
		{
			"doubleSided":true,
			"name":"TanksMaterial",
			"pbrMetallicRoughness":{
				"baseColorTexture":{
					"index":0
				},
				"metallicFactor":0
			}
		}
	],
	"meshes":[
		{
			"name":"Cube.005",
			"primitives":[
				{
					"attributes":{
						"POSITION":0,
						"NORMAL":1,
						"TEXCOORD_0":2
					},
					"indices":3,
					"material":0
				}
			]
		},
		{
			"name":"Cube.001",
			"primitives":[
				{
					"attributes":{
						"POSITION":4,
						"NORMAL":5,
						"TEXCOORD_0":6
					},
					"indices":7,
					"material":0
				}
			]
		},
		{
			"name":"Cube.002",
			"primitives":[
				{
					"attributes":{
						"POSITION":8,
						"NORMAL":9,
						"TEXCOORD_0":10
					},
					"indices":11,
					"material":0
				}
			]
		},
		{
			"name":"Cube.008",
			"primitives":[
				{
					"attributes":{
						"POSITION":12,
						"NORMAL":13,
						"TEXCOORD_0":14
					},
					"indices":7,
					"material":0
				}
			]
		},
		{
			"name":"Cube.009",
			"primitives":[
				{
					"attributes":{
						"POSITION":15,
						"NORMAL":16,
						"TEXCOORD_0":17
					},
					"indices":7,
					"material":0
				}
			]
		},
		{
			"name":"Cube.010",
			"primitives":[
				{
					"attributes":{
						"POSITION":18,
						"NORMAL":19,
						"TEXCOORD_0":20
					},
					"indices":7,
					"material":0
				}
			]
		},
		{
			"name":"Cube.011",
			"primitives":[
				{
					"attributes":{
						"POSITION":21,
						"NORMAL":22,
						"TEXCOORD_0":23
					},
					"indices":24,
					"material":0
				}
			]
		},
		{
			"name":"Cube.012",
			"primitives":[
				{
					"attributes":{
						"POSITION":25,
						"NORMAL":26,
						"TEXCOORD_0":27
					},
					"indices":7,
					"material":0
				}
			]
		},
		{
			"name":"Cube.013",
			"primitives":[
				{
					"attributes":{
						"POSITION":28,
						"NORMAL":29,
						"TEXCOORD_0":30
					},
					"indices":24,
					"material":0
				}
			]
		},
		{
			"name":"Cube.014",
			"primitives":[
				{
					"attributes":{
						"POSITION":31,
						"NORMAL":32,
						"TEXCOORD_0":33
					},
					"indices":34,
					"material":0
				}
			]
		},
		{
			"name":"Cube.015",
			"primitives":[
				{
					"attributes":{
						"POSITION":35,
						"NORMAL":36,
						"TEXCOORD_0":37
					},
					"indices":38,
					"material":0
				}
			]
		},
		{
			"name":"TracksLeft.001",
			"primitives":[
				{
					"attributes":{
						"POSITION":39,
						"NORMAL":40,
						"TEXCOORD_0":41
					},
					"indices":42,
					"material":0
				}
			]
		},
		{
			"name":"Cube.016",
			"primitives":[
				{
					"attributes":{
						"POSITION":43,
						"NORMAL":44,
						"TEXCOORD_0":45
					},
					"indices":46,
					"material":0
				}
			]
		},
		{
			"name":"Cube.017",
			"primitives":[
				{
					"attributes":{
						"POSITION":47,
						"NORMAL":48,
						"TEXCOORD_0":49
					},
					"indices":50,
					"material":0
				}
			]
		},
		{
			"name":"Cube.018",
			"primitives":[
				{
					"attributes":{
						"POSITION":51,
						"NORMAL":52,
						"TEXCOORD_0":53
					},
					"indices":50,
					"material":0
				}
			]
		},
		{
			"name":"Cube.019",
			"primitives":[
				{
					"attributes":{
						"POSITION":54,
						"NORMAL":55,
						"TEXCOORD_0":56
					},
					"indices":50,
					"material":0
				}
			]
		},
		{
			"name":"Cube.020",
			"primitives":[
				{
					"attributes":{
						"POSITION":57,
						"NORMAL":58,
						"TEXCOORD_0":59
					},
					"indices":50,
					"material":0
				}
			]
		},
		{
			"name":"Cube.021",
			"primitives":[
				{
					"attributes":{
						"POSITION":60,
						"NORMAL":61,
						"TEXCOORD_0":62
					},
					"indices":50,
					"material":0
				}
			]
		},
		{
			"name":"Cube.022",
			"primitives":[
				{
					"attributes":{
						"POSITION":63,
						"NORMAL":64,
						"TEXCOORD_0":65
					},
					"indices":50,
					"material":0
				}
			]
		},
		{
			"name":"Cube.023",
			"primitives":[
				{
					"attributes":{
						"POSITION":66,
						"NORMAL":67,
						"TEXCOORD_0":68
					},
					"indices":50,
					"material":0
				}
			]
		},
		{
			"name":"Cube.024",
			"primitives":[
				{
					"attributes":{
						"POSITION":69,
						"NORMAL":70,
						"TEXCOORD_0":71
					},
					"indices":50,
					"material":0
				}
			]
		},
		{
			"name":"Cube.025",
			"primitives":[
				{
					"attributes":{
						"POSITION":72,
						"NORMAL":73,
						"TEXCOORD_0":74
					},
					"indices":46,
					"material":0
				}
			]
		},
		{
			"name":"TracksLeft.002",
			"primitives":[
				{
					"attributes":{
						"POSITION":75,
						"NORMAL":76,
						"TEXCOORD_0":77
					},
					"indices":42,
					"material":0
				}
			]
		},
		{
			"name":"Cube.006",
			"primitives":[
				{
					"attributes":{
						"POSITION":78,
						"NORMAL":79,
						"TEXCOORD_0":80
					},
					"indices":81,
					"material":0
				}
			]
		},
		{
			"name":"Cube.007",
			"primitives":[
				{
					"attributes":{
						"POSITION":82,
						"NORMAL":83,
						"TEXCOORD_0":84
					},
					"indices":85,
					"material":0
				}
			]
		},
		{
			"name":"Cube.003",
			"primitives":[
				{
					"attributes":{
						"POSITION":86,
						"NORMAL":87,
						"TEXCOORD_0":88
					},
					"indices":89,
					"material":0
				}
			]
		}
	],
	"textures":[
		{
			"sampler":0,
			"source":0
		}
	],
	"images":[
		{
			"mimeType":"image/png",
			"name":"colorAtlas.png",
			"uri":"colorAtlas.png.png"
		}
	],
	"accessors":[
		{
			"bufferView":0,
			"componentType":5126,
			"count":260,
			"max":[
				0.5413265228271484,
				0.329656720161438,
				0.8934288620948792
			],
			"min":[
				0.4659219980239868,
				0.11277147382497787,
				0.6653820872306824
			],
			"type":"VEC3"
		},
		{
			"bufferView":1,
			"componentType":5126,
			"count":260,
			"type":"VEC3"
		},
		{
			"bufferView":2,
			"componentType":5126,
			"count":260,
			"type":"VEC2"
		},
		{
			"bufferView":3,
			"componentType":5123,
			"count":468,
			"type":"SCALAR"
		},
		{
			"bufferView":4,
			"componentType":5126,
			"count":360,
			"max":[
				0.4745965301990509,
				0.2721919119358063,
				0.6970197558403015
			],
			"min":[
				0.4011682868003845,
				0.029617689549922943,
				0.4419618844985962
			],
			"type":"VEC3"
		},
		{
			"bufferView":5,
			"componentType":5126,
			"count":360,
			"type":"VEC3"
		},
		{
			"bufferView":6,
			"componentType":5126,
			"count":360,
			"type":"VEC2"
		},
		{
			"bufferView":7,
			"componentType":5123,
			"count":588,
			"type":"SCALAR"
		},
		{
			"bufferView":8,
			"componentType":5126,
			"count":364,
			"max":[
				0.5541909337043762,
				0.27219200134277344,
				0.533359169960022
			],
			"min":[
				0.48114317655563354,
				0.02961774915456772,
				0.2783014178276062
			],
			"type":"VEC3"
		},
		{
			"bufferView":9,
			"componentType":5126,
			"count":364,
			"type":"VEC3"
		},
		{
			"bufferView":10,
			"componentType":5126,
			"count":364,
			"type":"VEC2"
		},
		{
			"bufferView":11,
			"componentType":5123,
			"count":588,
			"type":"SCALAR"
		},
		{
			"bufferView":12,
			"componentType":5126,
			"count":360,
			"max":[
				0.4745965301990509,
				0.27219197154045105,
				0.3702603578567505
			],
			"min":[
				0.4011682868003845,
				0.02961774170398712,
				0.11520253121852875
			],
			"type":"VEC3"
		},
		{
			"bufferView":13,
			"componentType":5126,
			"count":360,
			"type":"VEC3"
		},
		{
			"bufferView":14,
			"componentType":5126,
			"count":360,
			"type":"VEC2"
		},
		{
			"bufferView":15,
			"componentType":5126,
			"count":360,
			"max":[
				0.5541909337043762,
				0.2721920311450958,
				0.2090839296579361
			],
			"min":[
				0.48114317655563354,
				0.029617764055728912,
				-0.045973822474479675
			],
			"type":"VEC3"
		},
		{
			"bufferView":16,
			"componentType":5126,
			"count":360,
			"type":"VEC3"
		},
		{
			"bufferView":17,
			"componentType":5126,
			"count":360,
			"type":"VEC2"
		},
		{
			"bufferView":18,
			"componentType":5126,
			"count":360,
			"max":[
				0.4745965301990509,
				0.2721920311450958,
				0.04292064905166626
			],
			"min":[
				0.4011682868003845,
				0.0296177938580513,
				-0.21213707327842712
			],
			"type":"VEC3"
		},
		{
			"bufferView":19,
			"componentType":5126,
			"count":360,
			"type":"VEC3"
		},
		{
			"bufferView":20,
			"componentType":5126,
			"count":360,
			"type":"VEC2"
		},
		{
			"bufferView":21,
			"componentType":5126,
			"count":360,
			"max":[
				0.5541909337043762,
				0.2721920609474182,
				-0.12020590901374817
			],
			"min":[
				0.48114317655563354,
				0.029617823660373688,
				-0.37526369094848633
			],
			"type":"VEC3"
		},
		{
			"bufferView":22,
			"componentType":5126,
			"count":360,
			"type":"VEC3"
		},
		{
			"bufferView":23,
			"componentType":5126,
			"count":360,
			"type":"VEC2"
		},
		{
			"bufferView":24,
			"componentType":5123,
			"count":588,
			"type":"SCALAR"
		},
		{
			"bufferView":25,
			"componentType":5126,
			"count":360,
			"max":[
				0.4745965301990509,
				0.2721920907497406,
				-0.2826777696609497
			],
			"min":[
				0.4011682868003845,
				0.029617823660373688,
				-0.5377355813980103
			],
			"type":"VEC3"
		},
		{
			"bufferView":26,
			"componentType":5126,
			"count":360,
			"type":"VEC3"
		},
		{
			"bufferView":27,
			"componentType":5126,
			"count":360,
			"type":"VEC2"
		},
		{
			"bufferView":28,
			"componentType":5126,
			"count":360,
			"max":[
				0.5541909337043762,
				0.272192120552063,
				-0.4511672854423523
			],
			"min":[
				0.48114317655563354,
				0.02961786836385727,
				-0.7062250375747681
			],
			"type":"VEC3"
		},
		{
			"bufferView":29,
			"componentType":5126,
			"count":360,
			"type":"VEC3"
		},
		{
			"bufferView":30,
			"componentType":5126,
			"count":360,
			"type":"VEC2"
		},
		{
			"bufferView":31,
			"componentType":5126,
			"count":360,
			"max":[
				0.468159556388855,
				0.2970622181892395,
				-0.6657570004463196
			],
			"min":[
				0.3884698748588562,
				0.08017697185277939,
				-0.8938037753105164
			],
			"type":"VEC3"
		},
		{
			"bufferView":32,
			"componentType":5126,
			"count":360,
			"type":"VEC3"
		},
		{
			"bufferView":33,
			"componentType":5126,
			"count":360,
			"type":"VEC2"
		},
		{
			"bufferView":34,
			"componentType":5123,
			"count":618,
			"type":"SCALAR"
		},
		{
			"bufferView":35,
			"componentType":5126,
			"count":100,
			"max":[
				0.5458202362060547,
				0.2456856518983841,
				0.8011631369590759
			],
			"min":[
				0.5367591381072998,
				0.19790242612361908,
				0.7557185292243958
			],
			"type":"VEC3"
		},
		{
			"bufferView":36,
			"componentType":5126,
			"count":100,
			"type":"VEC3"
		},
		{
			"bufferView":37,
			"componentType":5126,
			"count":100,
			"type":"VEC2"
		},
		{
			"bufferView":38,
			"componentType":5123,
			"count":150,
			"type":"SCALAR"
		},
		{
			"bufferView":39,
			"componentType":5126,
			"count":700,
			"max":[
				0.5678200721740723,
				0.36774611473083496,
				0.9217171669006348
			],
			"min":[
				0.33275455236434937,
				-0.0006963461637496948,
				-0.930138111114502
			],
			"type":"VEC3"
		},
		{
			"bufferView":40,
			"componentType":5126,
			"count":700,
			"type":"VEC3"
		},
		{
			"bufferView":41,
			"componentType":5126,
			"count":700,
			"type":"VEC2"
		},
		{
			"bufferView":42,
			"componentType":5123,
			"count":1056,
			"type":"SCALAR"
		},
		{
			"bufferView":43,
			"componentType":5126,
			"count":360,
			"max":[
				-0.3884698450565338,
				0.2970622181892395,
				-0.6657570004463196
			],
			"min":[
				-0.46815958619117737,
				0.08017698675394058,
				-0.8938037753105164
			],
			"type":"VEC3"
		},
		{
			"bufferView":44,
			"componentType":5126,
			"count":360,
			"type":"VEC3"
		},
		{
			"bufferView":45,
			"componentType":5126,
			"count":360,
			"type":"VEC2"
		},
		{
			"bufferView":46,
			"componentType":5123,
			"count":618,
			"type":"SCALAR"
		},
		{
			"bufferView":47,
			"componentType":5126,
			"count":360,
			"max":[
				-0.48114311695098877,
				0.272192120552063,
				-0.4511672854423523
			],
			"min":[
				-0.5541909337043762,
				0.029617883265018463,
				-0.7062250375747681
			],
			"type":"VEC3"
		},
		{
			"bufferView":48,
			"componentType":5126,
			"count":360,
			"type":"VEC3"
		},
		{
			"bufferView":49,
			"componentType":5126,
			"count":360,
			"type":"VEC2"
		},
		{
			"bufferView":50,
			"componentType":5123,
			"count":588,
			"type":"SCALAR"
		},
		{
			"bufferView":51,
			"componentType":5126,
			"count":360,
			"max":[
				-0.4011683166027069,
				0.2721920907497406,
				-0.2826778292655945
			],
			"min":[
				-0.4745965301990509,
				0.02961783856153488,
				-0.537735641002655
			],
			"type":"VEC3"
		},
		{
			"bufferView":52,
			"componentType":5126,
			"count":360,
			"type":"VEC3"
		},
		{
			"bufferView":53,
			"componentType":5126,
			"count":360,
			"type":"VEC2"
		},
		{
			"bufferView":54,
			"componentType":5126,
			"count":360,
			"max":[
				-0.48114311695098877,
				0.2721920907497406,
				-0.12020590901374817
			],
			"min":[
				-0.5541909337043762,
				0.029617853462696075,
				-0.37526369094848633
			],
			"type":"VEC3"
		},
		{
			"bufferView":55,
			"componentType":5126,
			"count":360,
			"type":"VEC3"
		},
		{
			"bufferView":56,
			"componentType":5126,
			"count":360,
			"type":"VEC2"
		},
		{
			"bufferView":57,
			"componentType":5126,
			"count":360,
			"max":[
				-0.4011683166027069,
				0.2721920609474182,
				0.04292064905166626
			],
			"min":[
				-0.4745965301990509,
				0.029617823660373688,
				-0.21213707327842712
			],
			"type":"VEC3"
		},
		{
			"bufferView":58,
			"componentType":5126,
			"count":360,
			"type":"VEC3"
		},
		{
			"bufferView":59,
			"componentType":5126,
			"count":360,
			"type":"VEC2"
		},
		{
			"bufferView":60,
			"componentType":5126,
			"count":360,
			"max":[
				-0.48114311695098877,
				0.2721920311450958,
				0.2090839296579361
			],
			"min":[
				-0.5541909337043762,
				0.029617778956890106,
				-0.045973822474479675
			],
			"type":"VEC3"
		},
		{
			"bufferView":61,
			"componentType":5126,
			"count":360,
			"type":"VEC3"
		},
		{
			"bufferView":62,
			"componentType":5126,
			"count":360,
			"type":"VEC2"
		},
		{
			"bufferView":63,
			"componentType":5126,
			"count":360,
			"max":[
				-0.4011683166027069,
				0.27219200134277344,
				0.3702603578567505
			],
			"min":[
				-0.4745965301990509,
				0.029617756605148315,
				0.11520253121852875
			],
			"type":"VEC3"
		},
		{
			"bufferView":64,
			"componentType":5126,
			"count":360,
			"type":"VEC3"
		},
		{
			"bufferView":65,
			"componentType":5126,
			"count":360,
			"type":"VEC2"
		},
		{
			"bufferView":66,
			"componentType":5126,
			"count":360,
			"max":[
				-0.48114311695098877,
				0.27219200134277344,
				0.533359169960022
			],
			"min":[
				-0.5541909337043762,
				0.029617764055728912,
				0.2783014178276062
			],
			"type":"VEC3"
		},
		{
			"bufferView":67,
			"componentType":5126,
			"count":360,
			"type":"VEC3"
		},
		{
			"bufferView":68,
			"componentType":5126,
			"count":360,
			"type":"VEC2"
		},
		{
			"bufferView":69,
			"componentType":5126,
			"count":360,
			"max":[
				-0.4011683166027069,
				0.27219194173812866,
				0.6970197558403015
			],
			"min":[
				-0.4745965301990509,
				0.02961771935224533,
				0.4419618844985962
			],
			"type":"VEC3"
		},
		{
			"bufferView":70,
			"componentType":5126,
			"count":360,
			"type":"VEC3"
		},
		{
			"bufferView":71,
			"componentType":5126,
			"count":360,
			"type":"VEC2"
		},
		{
			"bufferView":72,
			"componentType":5126,
			"count":360,
			"max":[
				-0.4659220278263092,
				0.3296567499637604,
				0.8934289813041687
			],
			"min":[
				-0.5458202362060547,
				0.11277148872613907,
				0.6653822064399719
			],
			"type":"VEC3"
		},
		{
			"bufferView":73,
			"componentType":5126,
			"count":360,
			"type":"VEC3"
		},
		{
			"bufferView":74,
			"componentType":5126,
			"count":360,
			"type":"VEC2"
		},
		{
			"bufferView":75,
			"componentType":5126,
			"count":700,
			"max":[
				-0.33269697427749634,
				0.36774611473083496,
				0.9217171669006348
			],
			"min":[
				-0.5677624940872192,
				-0.0006963461637496948,
				-0.930138111114502
			],
			"type":"VEC3"
		},
		{
			"bufferView":76,
			"componentType":5126,
			"count":700,
			"type":"VEC3"
		},
		{
			"bufferView":77,
			"componentType":5126,
			"count":700,
			"type":"VEC2"
		},
		{
			"bufferView":78,
			"componentType":5126,
			"count":1010,
			"max":[
				0.2702055275440216,
				0.7626082897186279,
				1.6462011337280273
			],
			"min":[
				-0.24269992113113403,
				0.5910747051239014,
				0.35567450523376465
			],
			"type":"VEC3"
		},
		{
			"bufferView":79,
			"componentType":5126,
			"count":1010,
			"type":"VEC3"
		},
		{
			"bufferView":80,
			"componentType":5126,
			"count":1010,
			"type":"VEC2"
		},
		{
			"bufferView":81,
			"componentType":5123,
			"count":1740,
			"type":"SCALAR"
		},
		{
			"bufferView":82,
			"componentType":5126,
			"count":2522,
			"max":[
				0.388258159160614,
				0.9067956209182739,
				0.38048431277275085
			],
			"min":[
				-0.36075258255004883,
				0.4964805543422699,
				-0.547200620174408
			],
			"type":"VEC3"
		},
		{
			"bufferView":83,
			"componentType":5126,
			"count":2522,
			"type":"VEC3"
		},
		{
			"bufferView":84,
			"componentType":5126,
			"count":2522,
			"type":"VEC2"
		},
		{
			"bufferView":85,
			"componentType":5123,
			"count":4662,
			"type":"SCALAR"
		},
		{
			"bufferView":86,
			"componentType":5126,
			"count":2953,
			"max":[
				0.6102599501609802,
				0.6021625995635986,
				0.9533807039260864
			],
			"min":[
				-0.6102599501609802,
				0.13373146951198578,
				-1.0494402647018433
			],
			"type":"VEC3"
		},
		{
			"bufferView":87,
			"componentType":5126,
			"count":2953,
			"type":"VEC3"
		},
		{
			"bufferView":88,
			"componentType":5126,
			"count":2953,
			"type":"VEC2"
		},
		{
			"bufferView":89,
			"componentType":5123,
			"count":4944,
			"type":"SCALAR"
		}
	],
	"bufferViews":[
		{
			"buffer":0,
			"byteLength":3120,
			"byteOffset":0,
			"target":34962
		},
		{
			"buffer":0,
			"byteLength":3120,
			"byteOffset":3120,
			"target":34962
		},
		{
			"buffer":0,
			"byteLength":2080,
			"byteOffset":6240,
			"target":34962
		},
		{
			"buffer":0,
			"byteLength":936,
			"byteOffset":8320,
			"target":34963
		},
		{
			"buffer":0,
			"byteLength":4320,
			"byteOffset":9256,
			"target":34962
		},
		{
			"buffer":0,
			"byteLength":4320,
			"byteOffset":13576,
			"target":34962
		},
		{
			"buffer":0,
			"byteLength":2880,
			"byteOffset":17896,
			"target":34962
		},
		{
			"buffer":0,
			"byteLength":1176,
			"byteOffset":20776,
			"target":34963
		},
		{
			"buffer":0,
			"byteLength":4368,
			"byteOffset":21952,
			"target":34962
		},
		{
			"buffer":0,
			"byteLength":4368,
			"byteOffset":26320,
			"target":34962
		},
		{
			"buffer":0,
			"byteLength":2912,
			"byteOffset":30688,
			"target":34962
		},
		{
			"buffer":0,
			"byteLength":1176,
			"byteOffset":33600,
			"target":34963
		},
		{
			"buffer":0,
			"byteLength":4320,
			"byteOffset":34776,
			"target":34962
		},
		{
			"buffer":0,
			"byteLength":4320,
			"byteOffset":39096,
			"target":34962
		},
		{
			"buffer":0,
			"byteLength":2880,
			"byteOffset":43416,
			"target":34962
		},
		{
			"buffer":0,
			"byteLength":4320,
			"byteOffset":46296,
			"target":34962
		},
		{
			"buffer":0,
			"byteLength":4320,
			"byteOffset":50616,
			"target":34962
		},
		{
			"buffer":0,
			"byteLength":2880,
			"byteOffset":54936,
			"target":34962
		},
		{
			"buffer":0,
			"byteLength":4320,
			"byteOffset":57816,
			"target":34962
		},
		{
			"buffer":0,
			"byteLength":4320,
			"byteOffset":62136,
			"target":34962
		},
		{
			"buffer":0,
			"byteLength":2880,
			"byteOffset":66456,
			"target":34962
		},
		{
			"buffer":0,
			"byteLength":4320,
			"byteOffset":69336,
			"target":34962
		},
		{
			"buffer":0,
			"byteLength":4320,
			"byteOffset":73656,
			"target":34962
		},
		{
			"buffer":0,
			"byteLength":2880,
			"byteOffset":77976,
			"target":34962
		},
		{
			"buffer":0,
			"byteLength":1176,
			"byteOffset":80856,
			"target":34963
		},
		{
			"buffer":0,
			"byteLength":4320,
			"byteOffset":82032,
			"target":34962
		},
		{
			"buffer":0,
			"byteLength":4320,
			"byteOffset":86352,
			"target":34962
		},
		{
			"buffer":0,
			"byteLength":2880,
			"byteOffset":90672,
			"target":34962
		},
		{
			"buffer":0,
			"byteLength":4320,
			"byteOffset":93552,
			"target":34962
		},
		{
			"buffer":0,
			"byteLength":4320,
			"byteOffset":97872,
			"target":34962
		},
		{
			"buffer":0,
			"byteLength":2880,
			"byteOffset":102192,
			"target":34962
		},
		{
			"buffer":0,
			"byteLength":4320,
			"byteOffset":105072,
			"target":34962
		},
		{
			"buffer":0,
			"byteLength":4320,
			"byteOffset":109392,
			"target":34962
		},
		{
			"buffer":0,
			"byteLength":2880,
			"byteOffset":113712,
			"target":34962
		},
		{
			"buffer":0,
			"byteLength":1236,
			"byteOffset":116592,
			"target":34963
		},
		{
			"buffer":0,
			"byteLength":1200,
			"byteOffset":117828,
			"target":34962
		},
		{
			"buffer":0,
			"byteLength":1200,
			"byteOffset":119028,
			"target":34962
		},
		{
			"buffer":0,
			"byteLength":800,
			"byteOffset":120228,
			"target":34962
		},
		{
			"buffer":0,
			"byteLength":300,
			"byteOffset":121028,
			"target":34963
		},
		{
			"buffer":0,
			"byteLength":8400,
			"byteOffset":121328,
			"target":34962
		},
		{
			"buffer":0,
			"byteLength":8400,
			"byteOffset":129728,
			"target":34962
		},
		{
			"buffer":0,
			"byteLength":5600,
			"byteOffset":138128,
			"target":34962
		},
		{
			"buffer":0,
			"byteLength":2112,
			"byteOffset":143728,
			"target":34963
		},
		{
			"buffer":0,
			"byteLength":4320,
			"byteOffset":145840,
			"target":34962
		},
		{
			"buffer":0,
			"byteLength":4320,
			"byteOffset":150160,
			"target":34962
		},
		{
			"buffer":0,
			"byteLength":2880,
			"byteOffset":154480,
			"target":34962
		},
		{
			"buffer":0,
			"byteLength":1236,
			"byteOffset":157360,
			"target":34963
		},
		{
			"buffer":0,
			"byteLength":4320,
			"byteOffset":158596,
			"target":34962
		},
		{
			"buffer":0,
			"byteLength":4320,
			"byteOffset":162916,
			"target":34962
		},
		{
			"buffer":0,
			"byteLength":2880,
			"byteOffset":167236,
			"target":34962
		},
		{
			"buffer":0,
			"byteLength":1176,
			"byteOffset":170116,
			"target":34963
		},
		{
			"buffer":0,
			"byteLength":4320,
			"byteOffset":171292,
			"target":34962
		},
		{
			"buffer":0,
			"byteLength":4320,
			"byteOffset":175612,
			"target":34962
		},
		{
			"buffer":0,
			"byteLength":2880,
			"byteOffset":179932,
			"target":34962
		},
		{
			"buffer":0,
			"byteLength":4320,
			"byteOffset":182812,
			"target":34962
		},
		{
			"buffer":0,
			"byteLength":4320,
			"byteOffset":187132,
			"target":34962
		},
		{
			"buffer":0,
			"byteLength":2880,
			"byteOffset":191452,
			"target":34962
		},
		{
			"buffer":0,
			"byteLength":4320,
			"byteOffset":194332,
			"target":34962
		},
		{
			"buffer":0,
			"byteLength":4320,
			"byteOffset":198652,
			"target":34962
		},
		{
			"buffer":0,
			"byteLength":2880,
			"byteOffset":202972,
			"target":34962
		},
		{
			"buffer":0,
			"byteLength":4320,
			"byteOffset":205852,
			"target":34962
		},
		{
			"buffer":0,
			"byteLength":4320,
			"byteOffset":210172,
			"target":34962
		},
		{
			"buffer":0,
			"byteLength":2880,
			"byteOffset":214492,
			"target":34962
		},
		{
			"buffer":0,
			"byteLength":4320,
			"byteOffset":217372,
			"target":34962
		},
		{
			"buffer":0,
			"byteLength":4320,
			"byteOffset":221692,
			"target":34962
		},
		{
			"buffer":0,
			"byteLength":2880,
			"byteOffset":226012,
			"target":34962
		},
		{
			"buffer":0,
			"byteLength":4320,
			"byteOffset":228892,
			"target":34962
		},
		{
			"buffer":0,
			"byteLength":4320,
			"byteOffset":233212,
			"target":34962
		},
		{
			"buffer":0,
			"byteLength":2880,
			"byteOffset":237532,
			"target":34962
		},
		{
			"buffer":0,
			"byteLength":4320,
			"byteOffset":240412,
			"target":34962
		},
		{
			"buffer":0,
			"byteLength":4320,
			"byteOffset":244732,
			"target":34962
		},
		{
			"buffer":0,
			"byteLength":2880,
			"byteOffset":249052,
			"target":34962
		},
		{
			"buffer":0,
			"byteLength":4320,
			"byteOffset":251932,
			"target":34962
		},
		{
			"buffer":0,
			"byteLength":4320,
			"byteOffset":256252,
			"target":34962
		},
		{
			"buffer":0,
			"byteLength":2880,
			"byteOffset":260572,
			"target":34962
		},
		{
			"buffer":0,
			"byteLength":8400,
			"byteOffset":263452,
			"target":34962
		},
		{
			"buffer":0,
			"byteLength":8400,
			"byteOffset":271852,
			"target":34962
		},
		{
			"buffer":0,
			"byteLength":5600,
			"byteOffset":280252,
			"target":34962
		},
		{
			"buffer":0,
			"byteLength":12120,
			"byteOffset":285852,
			"target":34962
		},
		{
			"buffer":0,
			"byteLength":12120,
			"byteOffset":297972,
			"target":34962
		},
		{
			"buffer":0,
			"byteLength":8080,
			"byteOffset":310092,
			"target":34962
		},
		{
			"buffer":0,
			"byteLength":3480,
			"byteOffset":318172,
			"target":34963
		},
		{
			"buffer":0,
			"byteLength":30264,
			"byteOffset":321652,
			"target":34962
		},
		{
			"buffer":0,
			"byteLength":30264,
			"byteOffset":351916,
			"target":34962
		},
		{
			"buffer":0,
			"byteLength":20176,
			"byteOffset":382180,
			"target":34962
		},
		{
			"buffer":0,
			"byteLength":9324,
			"byteOffset":402356,
			"target":34963
		},
		{
			"buffer":0,
			"byteLength":35436,
			"byteOffset":411680,
			"target":34962
		},
		{
			"buffer":0,
			"byteLength":35436,
			"byteOffset":447116,
			"target":34962
		},
		{
			"buffer":0,
			"byteLength":23624,
			"byteOffset":482552,
			"target":34962
		},
		{
			"buffer":0,
			"byteLength":9888,
			"byteOffset":506176,
			"target":34963
		}
	],
	"samplers":[
		{
			"magFilter":9728,
			"minFilter":9984
		}
	],
	"buffers":[
		{
			"byteLength":516064,
			"uri":"Tank.bin"
		}
	]
}
