{
	"asset":{
		"generator":"Khronos glTF Blender I/O v5.1.19",
		"version":"2.0"
	},
	"scene":0,
	"scenes":[
		{
			"name":"Scene",
			"nodes":[
				0,
				1
			]
		}
	],
	"nodes":[
		{
			"mesh":0,
			"name":"\u5186\u67f1",
			"rotation":[
				0,
				0.7071068286895752,
				-0.7071068286895752,
				5.338509012631221e-08
			],
			"scale":[
				0.25,
				0.25,
				0.25
			],
			"translation":[
				0,
				0.20000001788139343,
				0
			]
		},
		{
			"mesh":1,
			"name":"\u7403",
			"rotation":[
				0,
				0.7071068286895752,
				-0.7071068286895752,
				5.338509012631221e-08
			],
			"scale":[
				0.25,
				0.25,
				0.25
			],
			"translation":[
				0,
				0.20000001788139343,
				-0.20000004768371582
			]
		}
	],
	"materials":[
		{
			"doubleSided":true,
			"name":"\u30de\u30c6\u30ea\u30a2\u30eb",
			"pbrMetallicRoughness":{
				"baseColorFactor":[
					0.07830753177404404,
					0.07323986291885376,
					0.07323913276195526,
					1
				],
				"metallicFactor":0
			}
		},
		{
			"doubleSided":true,
			"name":"\u30de\u30c6\u30ea\u30a2\u30eb.001",
			"pbrMetallicRoughness":{
				"baseColorFactor":[
					0.010023506358265877,
					0.010023243725299835,
					0.010022985748946667,
					1
				],
				"metallicFactor":0
			}
		}
	],
	"meshes":[
		{
			"name":"\u5186\u67f1",
			"primitives":[
				{
					"attributes":{
						"POSITION":0,
						"NORMAL":1,
						"TEXCOORD_0":2
					},
					"indices":3,
					"material":0
				}
			]
		},
		{
			"name":"\u7403",
			"primitives":[
				{
					"attributes":{
						"POSITION":4,
						"NORMAL":5,
						"TEXCOORD_0":6
					},
					"indices":7,
					"material":1
				}
			]
		}
	],
	"accessors":[
		{
			"bufferView":0,
			"componentType":5126,
			"count":192,
			"max":[
				1,
				1,
				1
			],
			"min":[
				-1,
				-1,
				-1
			],
			"type":"VEC3"
		},
		{
			"bufferView":1,
			"componentType":5126,
			"count":192,
			"type":"VEC3"
		},
		{
			"bufferView":2,
			"componentType":5126,
			"count":192,
			"type":"VEC2"
		},
		{
			"bufferView":3,
			"componentType":5123,
			"count":372,
			"type":"SCALAR"
		},
		{
			"bufferView":4,
			"componentType":5126,
			"count":992,
			"max":[
				0.9999997019767761,
				1,
				0.9999993443489075
			],
			"min":[
				-0.9999990463256836,
				0,
				-1
			],
			"type":"VEC3"
		},
		{
			"bufferView":5,
			"componentType":5126,
			"count":992,
			"type":"VEC3"
		},
		{
			"bufferView":6,
			"componentType":5126,
			"count":992,
			"type":"VEC2"
		},
		{
			"bufferView":7,
			"componentType":5123,
			"count":1440,
			"type":"SCALAR"
		}
	],
	"bufferViews":[
		{
			"buffer":0,
			"byteLength":2304,
			"byteOffset":0,
			"target":34962
		},
		{
			"buffer":0,
			"byteLength":2304,
			"byteOffset":2304,
			"target":34962
		},
		{
			"buffer":0,
			"byteLength":1536,
			"byteOffset":4608,
			"target":34962
		},
		{
			"buffer":0,
			"byteLength":744,
			"byteOffset":6144,
			"target":34963
		},
		{
			"buffer":0,
			"byteLength":11904,
			"byteOffset":6888,
			"target":34962
		},
		{
			"buffer":0,
			"byteLength":11904,
			"byteOffset":18792,
			"target":34962
		},
		{
			"buffer":0,
			"byteLength":7936,
			"byteOffset":30696,
			"target":34962
		},
		{
			"buffer":0,
			"byteLength":2880,
			"byteOffset":38632,
			"target":34963
		}
	],
	"buffers":[
		{
			"byteLength":41512,
			"uri":"Bullet.bin"
		}
	]
}
