{
	"asset":{
		"generator":"Khronos glTF Blender I/O v5.1.19",
		"version":"2.0"
	},
	"scene":0,
	"scenes":[
		{
			"name":"Scene",
			"nodes":[
				22
			]
		}
	],
	"nodes":[
		{
			"name":"head",
			"rotation":[
				0.18372653424739838,
				0.5105302333831787,
				0.7412176728248596,
				0.39522120356559753
			],
			"scale":[
				1,
				1.0000001192092896,
				1
			],
			"translation":[
				-1.9105676412582397,
				9.644287109375,
				4.326962471008301
			]
		},
		{
			"name":"pata_front.R",
			"rotation":[
				0.05877792462706566,
				-0.07675838470458984,
				0.44735077023506165,
				0.8891178965568542
			],
			"scale":[
				0.9999999403953552,
				1.0000001192092896,
				1
			],
			"translation":[
				-1.1324882507324219e-05,
				36.40822219848633,
				-1.2293457984924316e-07
			]
		},
		{
			"children":[
				1
			],
			"name":"radio_front.R",
			"rotation":[
				-0.06922110170125961,
				-0.09639699012041092,
				0.6832782030105591,
				0.7204492092132568
			],
			"scale":[
				0.9999999403953552,
				0.9999999403953552,
				1
			],
			"translation":[
				2.5033950805664062e-06,
				44.12632369995117,
				2.86102294921875e-06
			]
		},
		{
			"children":[
				2
			],
			"name":"femur_front.R",
			"rotation":[
				-0.09722888469696045,
				0.02458844892680645,
				0.3972592353820801,
				0.9122099876403809
			],
			"translation":[
				-21.22003173828125,
				-11.757499694824219,
				2.063023090362549
			]
		},
		{
			"name":"pata_back.R",
			"rotation":[
				0.27660053968429565,
				-0.15162444114685059,
				0.3508651852607727,
				0.8817005157470703
			],
			"scale":[
				1,
				1.0000001192092896,
				1.0000001192092896
			],
			"translation":[
				-1.9073486328125e-06,
				36.010398864746094,
				-1.7881393432617188e-06
			]
		},
		{
			"children":[
				4
			],
			"name":"radio_back.R",
			"rotation":[
				-0.10614009946584702,
				-0.39191633462905884,
				0.6375375390052795,
				0.6547379493713379
			],
			"scale":[
				0.9999999403953552,
				1,
				1
			],
			"translation":[
				7.62939453125e-06,
				51.88143539428711,
				-5.7220458984375e-06
			]
		},
		{
			"children":[
				5
			],
			"name":"femur_back.R",
			"rotation":[
				-0.2534075975418091,
				-0.04365972429513931,
				0.3908821642398834,
				0.8837926983833313
			],
			"scale":[
				1,
				0.9999999403953552,
				1
			],
			"translation":[
				-8.788771629333496,
				-11.757499694824219,
				-26.09119987487793
			]
		},
		{
			"name":"butt",
			"rotation":[
				-0.433785080909729,
				0.33828553557395935,
				-0.6248181462287903,
				0.5540719628334045
			],
			"scale":[
				0.9999999403953552,
				1,
				1
			],
			"translation":[
				1.8743703365325928,
				8.72698974609375,
				-4.245124816894531
			]
		},
		{
			"name":"pata_front.L",
			"rotation":[
				-0.24981999397277832,
				-0.016662433743476868,
				-0.3757227659225464,
				0.8922694325447083
			],
			"scale":[
				1,
				1,
				1.0000001192092896
			],
			"translation":[
				7.748603820800781e-07,
				36.408233642578125,
				-1.1920928955078125e-07
			]
		},
		{
			"children":[
				8
			],
			"name":"radio_front.L",
			"rotation":[
				-0.08204708248376846,
				-0.32323557138442993,
				-0.6818569898605347,
				0.6510438919067383
			],
			"scale":[
				1,
				0.9999999403953552,
				1
			],
			"translation":[
				1.1324882507324219e-06,
				44.12632751464844,
				5.364418029785156e-07
			]
		},
		{
			"children":[
				9
			],
			"name":"femur_front.L",
			"rotation":[
				0.18277432024478912,
				-0.14107511937618256,
				-0.36587145924568176,
				0.9015705585479736
			],
			"scale":[
				1,
				0.9999999403953552,
				0.9999999403953552
			],
			"translation":[
				12.771242141723633,
				-11.757499694824219,
				17.071582794189453
			]
		},
		{
			"name":"pata_back.L",
			"rotation":[
				-0.03552244231104851,
				0.08510281145572662,
				-0.445367693901062,
				0.8905859589576721
			],
			"scale":[
				0.9999999403953552,
				1,
				0.9999999403953552
			],
			"translation":[
				1.9073486328125e-06,
				36.01039123535156,
				1.6689300537109375e-06
			]
		},
		{
			"children":[
				11
			],
			"name":"radio_back.L",
			"rotation":[
				-0.15997669100761414,
				-0.036322806030511856,
				-0.6262007355690002,
				0.7622078657150269
			],
			"scale":[
				0.9999998807907104,
				1,
				0.9999998807907104
			],
			"translation":[
				-1.9073486328125e-06,
				51.88143539428711,
				-2.5033950805664062e-06
			]
		},
		{
			"children":[
				12
			],
			"name":"femur_back.L",
			"rotation":[
				0.04258507862687111,
				-0.10198786854743958,
				-0.4638866186141968,
				0.8789733648300171
			],
			"translation":[
				25.202503204345703,
				-11.757499694824219,
				-11.082639694213867
			]
		},
		{
			"name":"gear_01.L",
			"rotation":[
				0.5924357771873474,
				0.38603103160858154,
				-0.3860313892364502,
				0.5924354195594788
			],
			"scale":[
				1.0000001192092896,
				1.0000001192092896,
				1
			],
			"translation":[
				31.223636627197266,
				28.887916564941406,
				8.086508750915527
			]
		},
		{
			"name":"gear_02.R",
			"rotation":[
				0.38603144884109497,
				-0.592435359954834,
				0.5924358367919922,
				0.3860311210155487
			],
			"scale":[
				0.9999998807907104,
				0.9999995827674866,
				0.9999998807907104
			],
			"translation":[
				-20.284080505371094,
				20.037841796875,
				-24.451614379882812
			]
		},
		{
			"name":"gear_03.L",
			"rotation":[
				0.5924357771873474,
				0.3860310912132263,
				-0.3860313892364502,
				0.5924354195594788
			],
			"scale":[
				0.9999999403953552,
				0.9999999403953552,
				0.9999998807907104
			],
			"translation":[
				31.40828514099121,
				11.358940124511719,
				7.668336868286133
			]
		},
		{
			"name":"gear_01.R",
			"rotation":[
				-0.5924358367919922,
				0.3860310912132263,
				0.38603129982948303,
				0.5924354791641235
			],
			"scale":[
				1,
				0.9999999403953552,
				1
			],
			"translation":[
				-27.011337280273438,
				28.887916564941406,
				-17.626651763916016
			]
		},
		{
			"name":"gear_03.R",
			"rotation":[
				-0.5924358367919922,
				0.3860310912132263,
				0.3860313296318054,
				0.592435359954834
			],
			"translation":[
				-26.826698303222656,
				11.358940124511719,
				-18.04482650756836
			]
		},
		{
			"name":"gear_02.L",
			"rotation":[
				-0.3860313892364502,
				-0.5924353003501892,
				-0.5924358367919922,
				0.38603121042251587
			],
			"scale":[
				0.9999999403953552,
				0.9999998807907104,
				1
			],
			"translation":[
				31.73519515991211,
				20.037841796875,
				-1.4829397201538086
			]
		},
		{
			"children":[
				0,
				3,
				6,
				7,
				10,
				13,
				14,
				15,
				16,
				17,
				18,
				19
			],
			"name":"body",
			"rotation":[
				0,
				0.2064044326543808,
				0,
				0.9784667491912842
			],
			"translation":[
				3.118469612672925e-05,
				7.09190559387207,
				-21.620161056518555
			]
		},
		{
			"mesh":0,
			"name":"robot_bug",
			"skin":0
		},
		{
			"children":[
				21,
				20
			],
			"name":"Armature",
			"translation":[
				0,
				27.44493293762207,
				0
			]
		}
	],
	"animations":[
		{
			"channels":[
				{
					"sampler":0,
					"target":{
						"node":20,
						"path":"translation"
					}
				},
				{
					"sampler":1,
					"target":{
						"node":20,
						"path":"rotation"
					}
				},
				{
					"sampler":2,
					"target":{
						"node":20,
						"path":"scale"
					}
				},
				{
					"sampler":3,
					"target":{
						"node":0,
						"path":"translation"
					}
				},
				{
					"sampler":4,
					"target":{
						"node":0,
						"path":"rotation"
					}
				},
				{
					"sampler":5,
					"target":{
						"node":0,
						"path":"scale"
					}
				},
				{
					"sampler":6,
					"target":{
						"node":3,
						"path":"translation"
					}
				},
				{
					"sampler":7,
					"target":{
						"node":3,
						"path":"rotation"
					}
				},
				{
					"sampler":8,
					"target":{
						"node":3,
						"path":"scale"
					}
				},
				{
					"sampler":9,
					"target":{
						"node":2,
						"path":"translation"
					}
				},
				{
					"sampler":10,
					"target":{
						"node":2,
						"path":"rotation"
					}
				},
				{
					"sampler":11,
					"target":{
						"node":2,
						"path":"scale"
					}
				},
				{
					"sampler":12,
					"target":{
						"node":1,
						"path":"translation"
					}
				},
				{
					"sampler":13,
					"target":{
						"node":1,
						"path":"rotation"
					}
				},
				{
					"sampler":14,
					"target":{
						"node":1,
						"path":"scale"
					}
				},
				{
					"sampler":15,
					"target":{
						"node":6,
						"path":"translation"
					}
				},
				{
					"sampler":16,
					"target":{
						"node":6,
						"path":"rotation"
					}
				},
				{
					"sampler":17,
					"target":{
						"node":6,
						"path":"scale"
					}
				},
				{
					"sampler":18,
					"target":{
						"node":5,
						"path":"translation"
					}
				},
				{
					"sampler":19,
					"target":{
						"node":5,
						"path":"rotation"
					}
				},
				{
					"sampler":20,
					"target":{
						"node":5,
						"path":"scale"
					}
				},
				{
					"sampler":21,
					"target":{
						"node":4,
						"path":"translation"
					}
				},
				{
					"sampler":22,
					"target":{
						"node":4,
						"path":"rotation"
					}
				},
				{
					"sampler":23,
					"target":{
						"node":4,
						"path":"scale"
					}
				},
				{
					"sampler":24,
					"target":{
						"node":7,
						"path":"translation"
					}
				},
				{
					"sampler":25,
					"target":{
						"node":7,
						"path":"rotation"
					}
				},
				{
					"sampler":26,
					"target":{
						"node":7,
						"path":"scale"
					}
				},
				{
					"sampler":27,
					"target":{
						"node":10,
						"path":"translation"
					}
				},
				{
					"sampler":28,
					"target":{
						"node":10,
						"path":"rotation"
					}
				},
				{
					"sampler":29,
					"target":{
						"node":10,
						"path":"scale"
					}
				},
				{
					"sampler":30,
					"target":{
						"node":9,
						"path":"translation"
					}
				},
				{
					"sampler":31,
					"target":{
						"node":9,
						"path":"rotation"
					}
				},
				{
					"sampler":32,
					"target":{
						"node":9,
						"path":"scale"
					}
				},
				{
					"sampler":33,
					"target":{
						"node":8,
						"path":"translation"
					}
				},
				{
					"sampler":34,
					"target":{
						"node":8,
						"path":"rotation"
					}
				},
				{
					"sampler":35,
					"target":{
						"node":8,
						"path":"scale"
					}
				},
				{
					"sampler":36,
					"target":{
						"node":13,
						"path":"translation"
					}
				},
				{
					"sampler":37,
					"target":{
						"node":13,
						"path":"rotation"
					}
				},
				{
					"sampler":38,
					"target":{
						"node":13,
						"path":"scale"
					}
				},
				{
					"sampler":39,
					"target":{
						"node":12,
						"path":"translation"
					}
				},
				{
					"sampler":40,
					"target":{
						"node":12,
						"path":"rotation"
					}
				},
				{
					"sampler":41,
					"target":{
						"node":12,
						"path":"scale"
					}
				},
				{
					"sampler":42,
					"target":{
						"node":11,
						"path":"translation"
					}
				},
				{
					"sampler":43,
					"target":{
						"node":11,
						"path":"rotation"
					}
				},
				{
					"sampler":44,
					"target":{
						"node":11,
						"path":"scale"
					}
				},
				{
					"sampler":45,
					"target":{
						"node":14,
						"path":"translation"
					}
				},
				{
					"sampler":46,
					"target":{
						"node":14,
						"path":"rotation"
					}
				},
				{
					"sampler":47,
					"target":{
						"node":14,
						"path":"scale"
					}
				},
				{
					"sampler":48,
					"target":{
						"node":15,
						"path":"translation"
					}
				},
				{
					"sampler":49,
					"target":{
						"node":15,
						"path":"rotation"
					}
				},
				{
					"sampler":50,
					"target":{
						"node":15,
						"path":"scale"
					}
				},
				{
					"sampler":51,
					"target":{
						"node":16,
						"path":"translation"
					}
				},
				{
					"sampler":52,
					"target":{
						"node":16,
						"path":"rotation"
					}
				},
				{
					"sampler":53,
					"target":{
						"node":16,
						"path":"scale"
					}
				},
				{
					"sampler":54,
					"target":{
						"node":17,
						"path":"translation"
					}
				},
				{
					"sampler":55,
					"target":{
						"node":17,
						"path":"rotation"
					}
				},
				{
					"sampler":56,
					"target":{
						"node":17,
						"path":"scale"
					}
				},
				{
					"sampler":57,
					"target":{
						"node":18,
						"path":"translation"
					}
				},
				{
					"sampler":58,
					"target":{
						"node":18,
						"path":"rotation"
					}
				},
				{
					"sampler":59,
					"target":{
						"node":18,
						"path":"scale"
					}
				},
				{
					"sampler":60,
					"target":{
						"node":19,
						"path":"translation"
					}
				},
				{
					"sampler":61,
					"target":{
						"node":19,
						"path":"rotation"
					}
				},
				{
					"sampler":62,
					"target":{
						"node":19,
						"path":"scale"
					}
				}
			],
			"name":"WALKING",
			"samplers":[
				{
					"input":36,
					"interpolation":"LINEAR",
					"output":37
				},
				{
					"input":38,
					"interpolation":"STEP",
					"output":39
				},
				{
					"input":38,
					"interpolation":"STEP",
					"output":40
				},
				{
					"input":38,
					"interpolation":"STEP",
					"output":41
				},
				{
					"input":36,
					"interpolation":"LINEAR",
					"output":42
				},
				{
					"input":38,
					"interpolation":"STEP",
					"output":43
				},
				{
					"input":38,
					"interpolation":"STEP",
					"output":44
				},
				{
					"input":36,
					"interpolation":"LINEAR",
					"output":45
				},
				{
					"input":38,
					"interpolation":"STEP",
					"output":46
				},
				{
					"input":38,
					"interpolation":"STEP",
					"output":47
				},
				{
					"input":36,
					"interpolation":"LINEAR",
					"output":48
				},
				{
					"input":38,
					"interpolation":"STEP",
					"output":49
				},
				{
					"input":38,
					"interpolation":"STEP",
					"output":50
				},
				{
					"input":36,
					"interpolation":"LINEAR",
					"output":51
				},
				{
					"input":38,
					"interpolation":"STEP",
					"output":52
				},
				{
					"input":38,
					"interpolation":"STEP",
					"output":53
				},
				{
					"input":36,
					"interpolation":"LINEAR",
					"output":54
				},
				{
					"input":38,
					"interpolation":"STEP",
					"output":55
				},
				{
					"input":38,
					"interpolation":"STEP",
					"output":56
				},
				{
					"input":36,
					"interpolation":"LINEAR",
					"output":57
				},
				{
					"input":38,
					"interpolation":"STEP",
					"output":58
				},
				{
					"input":38,
					"interpolation":"STEP",
					"output":59
				},
				{
					"input":36,
					"interpolation":"LINEAR",
					"output":60
				},
				{
					"input":38,
					"interpolation":"STEP",
					"output":61
				},
				{
					"input":38,
					"interpolation":"STEP",
					"output":62
				},
				{
					"input":38,
					"interpolation":"STEP",
					"output":63
				},
				{
					"input":38,
					"interpolation":"STEP",
					"output":64
				},
				{
					"input":38,
					"interpolation":"STEP",
					"output":65
				},
				{
					"input":36,
					"interpolation":"LINEAR",
					"output":66
				},
				{
					"input":38,
					"interpolation":"STEP",
					"output":67
				},
				{
					"input":38,
					"interpolation":"STEP",
					"output":68
				},
				{
					"input":36,
					"interpolation":"LINEAR",
					"output":69
				},
				{
					"input":38,
					"interpolation":"STEP",
					"output":70
				},
				{
					"input":38,
					"interpolation":"STEP",
					"output":71
				},
				{
					"input":36,
					"interpolation":"LINEAR",
					"output":72
				},
				{
					"input":38,
					"interpolation":"STEP",
					"output":73
				},
				{
					"input":38,
					"interpolation":"STEP",
					"output":74
				},
				{
					"input":36,
					"interpolation":"LINEAR",
					"output":75
				},
				{
					"input":38,
					"interpolation":"STEP",
					"output":76
				},
				{
					"input":38,
					"interpolation":"STEP",
					"output":77
				},
				{
					"input":36,
					"interpolation":"LINEAR",
					"output":78
				},
				{
					"input":38,
					"interpolation":"STEP",
					"output":79
				},
				{
					"input":38,
					"interpolation":"STEP",
					"output":80
				},
				{
					"input":36,
					"interpolation":"LINEAR",
					"output":81
				},
				{
					"input":38,
					"interpolation":"STEP",
					"output":40
				},
				{
					"input":38,
					"interpolation":"STEP",
					"output":82
				},
				{
					"input":36,
					"interpolation":"LINEAR",
					"output":83
				},
				{
					"input":38,
					"interpolation":"STEP",
					"output":84
				},
				{
					"input":38,
					"interpolation":"STEP",
					"output":85
				},
				{
					"input":36,
					"interpolation":"LINEAR",
					"output":86
				},
				{
					"input":38,
					"interpolation":"STEP",
					"output":87
				},
				{
					"input":38,
					"interpolation":"STEP",
					"output":88
				},
				{
					"input":36,
					"interpolation":"LINEAR",
					"output":89
				},
				{
					"input":38,
					"interpolation":"STEP",
					"output":90
				},
				{
					"input":38,
					"interpolation":"STEP",
					"output":91
				},
				{
					"input":36,
					"interpolation":"LINEAR",
					"output":92
				},
				{
					"input":38,
					"interpolation":"STEP",
					"output":93
				},
				{
					"input":38,
					"interpolation":"STEP",
					"output":94
				},
				{
					"input":36,
					"interpolation":"LINEAR",
					"output":95
				},
				{
					"input":38,
					"interpolation":"STEP",
					"output":96
				},
				{
					"input":38,
					"interpolation":"STEP",
					"output":97
				},
				{
					"input":36,
					"interpolation":"LINEAR",
					"output":98
				},
				{
					"input":38,
					"interpolation":"STEP",
					"output":99
				}
			]
		}
	],
	"materials":[
		{
			"doubleSided":true,
			"name":"robot_bug",
			"pbrMetallicRoughness":{
				"baseColorFactor":[
					0.800000011920929,
					0.800000011920929,
					0.800000011920929,
					1
				],
				"metallicFactor":0,
				"roughnessFactor":0.5
			}
		},
		{
			"doubleSided":true,
			"name":"Material",
			"pbrMetallicRoughness":{
				"baseColorFactor":[
					0.025881826877593994,
					0.06097479537129402,
					0.0323609784245491,
					1
				],
				"roughnessFactor":0.5874999761581421
			}
		},
		{
			"doubleSided":true,
			"name":"\u30de\u30c6\u30ea\u30a2\u30eb",
			"pbrMetallicRoughness":{
				"baseColorFactor":[
					0.09461753070354462,
					0.09462088346481323,
					0.09462755918502808,
					1
				],
				"metallicFactor":0.7437499761581421,
				"roughnessFactor":0.512499988079071
			}
		},
		{
			"doubleSided":true,
			"name":"\u30de\u30c6\u30ea\u30a2\u30eb.001",
			"pbrMetallicRoughness":{
				"baseColorFactor":[
					0,
					0,
					0,
					1
				],
				"metallicFactor":0.8500000238418579,
				"roughnessFactor":0.5
			}
		},
		{
			"doubleSided":true,
			"emissiveFactor":[
				0.5,
				0,
				0
			],
			"name":"\u30de\u30c6\u30ea\u30a2\u30eb.002",
			"pbrMetallicRoughness":{
				"baseColorFactor":[
					1,
					0,
					0,
					1
				],
				"metallicFactor":0,
				"roughnessFactor":0.48124998807907104
			}
		}
	],
	"meshes":[
		{
			"name":"robot_bug",
			"primitives":[
				{
					"attributes":{
						"POSITION":0,
						"NORMAL":1,
						"COLOR_0":2,
						"COLOR_1":3,
						"JOINTS_0":4,
						"WEIGHTS_0":5
					},
					"indices":6,
					"material":0
				},
				{
					"attributes":{
						"POSITION":7,
						"NORMAL":8,
						"COLOR_0":9,
						"COLOR_1":10,
						"JOINTS_0":11,
						"WEIGHTS_0":12
					},
					"indices":13,
					"material":1
				},
				{
					"attributes":{
						"POSITION":14,
						"NORMAL":15,
						"COLOR_0":16,
						"COLOR_1":17,
						"JOINTS_0":18,
						"WEIGHTS_0":19
					},
					"indices":20,
					"material":2
				},
				{
					"attributes":{
						"POSITION":21,
						"NORMAL":22,
						"COLOR_0":23,
						"COLOR_1":24,
						"JOINTS_0":25,
						"WEIGHTS_0":26
					},
					"indices":27,
					"material":3
				},
				{
					"attributes":{
						"POSITION":28,
						"NORMAL":29,
						"COLOR_0":30,
						"COLOR_1":31,
						"JOINTS_0":32,
						"WEIGHTS_0":33
					},
					"indices":34,
					"material":4
				}
			]
		}
	],
	"skins":[
		{
			"inverseBindMatrices":35,
			"joints":[
				20,
				0,
				3,
				2,
				1,
				6,
				5,
				4,
				7,
				10,
				9,
				8,
				13,
				12,
				11,
				14,
				15,
				16,
				17,
				18,
				19
			],
			"name":"Armature"
		}
	],
	"accessors":[
		{
			"bufferView":0,
			"componentType":5126,
			"count":32,
			"max":[
				47.740787506103516,
				52.143798828125,
				-6.275241374969482
			],
			"min":[
				-17.581083297729492,
				9.773473739624023,
				-44.49631118774414
			],
			"type":"VEC3"
		},
		{
			"bufferView":1,
			"componentType":5126,
			"count":32,
			"type":"VEC3"
		},
		{
			"bufferView":2,
			"componentType":5121,
			"count":32,
			"normalized":true,
			"type":"VEC4"
		},
		{
			"bufferView":3,
			"componentType":5123,
			"count":32,
			"normalized":true,
			"type":"VEC4"
		},
		{
			"bufferView":4,
			"componentType":5121,
			"count":32,
			"type":"VEC4"
		},
		{
			"bufferView":5,
			"componentType":5126,
			"count":32,
			"type":"VEC4"
		},
		{
			"bufferView":6,
			"componentType":5123,
			"count":42,
			"type":"SCALAR"
		},
		{
			"bufferView":7,
			"componentType":5126,
			"count":424,
			"max":[
				108.37284088134766,
				86.47378540039062,
				39.01618194580078
			],
			"min":[
				-108.37284088134766,
				15.259180068969727,
				-92.74539947509766
			],
			"type":"VEC3"
		},
		{
			"bufferView":8,
			"componentType":5126,
			"count":424,
			"type":"VEC3"
		},
		{
			"bufferView":9,
			"componentType":5121,
			"count":424,
			"normalized":true,
			"type":"VEC4"
		},
		{
			"bufferView":10,
			"componentType":5123,
			"count":424,
			"normalized":true,
			"type":"VEC4"
		},
		{
			"bufferView":11,
			"componentType":5121,
			"count":424,
			"type":"VEC4"
		},
		{
			"bufferView":12,
			"componentType":5126,
			"count":424,
			"type":"VEC4"
		},
		{
			"bufferView":13,
			"componentType":5123,
			"count":660,
			"type":"SCALAR"
		},
		{
			"bufferView":14,
			"componentType":5126,
			"count":1327,
			"max":[
				104.15177917480469,
				70.59522247314453,
				31.319049835205078
			],
			"min":[
				-104.15177917480469,
				0.13633346557617188,
				-87.20338439941406
			],
			"type":"VEC3"
		},
		{
			"bufferView":15,
			"componentType":5126,
			"count":1327,
			"type":"VEC3"
		},
		{
			"bufferView":16,
			"componentType":5121,
			"count":1327,
			"normalized":true,
			"type":"VEC4"
		},
		{
			"bufferView":17,
			"componentType":5123,
			"count":1327,
			"normalized":true,
			"type":"VEC4"
		},
		{
			"bufferView":18,
			"componentType":5121,
			"count":1327,
			"type":"VEC4"
		},
		{
			"bufferView":19,
			"componentType":5126,
			"count":1327,
			"type":"VEC4"
		},
		{
			"bufferView":20,
			"componentType":5123,
			"count":2073,
			"type":"SCALAR"
		},
		{
			"bufferView":21,
			"componentType":5126,
			"count":91,
			"max":[
				23.70953369140625,
				35.04201889038086,
				33.866554260253906
			],
			"min":[
				-19.51685333251953,
				19.258092880249023,
				-10.869260787963867
			],
			"type":"VEC3"
		},
		{
			"bufferView":22,
			"componentType":5126,
			"count":91,
			"type":"VEC3"
		},
		{
			"bufferView":23,
			"componentType":5121,
			"count":91,
			"normalized":true,
			"type":"VEC4"
		},
		{
			"bufferView":24,
			"componentType":5123,
			"count":91,
			"normalized":true,
			"type":"VEC4"
		},
		{
			"bufferView":25,
			"componentType":5121,
			"count":91,
			"type":"VEC4"
		},
		{
			"bufferView":26,
			"componentType":5126,
			"count":91,
			"type":"VEC4"
		},
		{
			"bufferView":27,
			"componentType":5123,
			"count":123,
			"type":"SCALAR"
		},
		{
			"bufferView":28,
			"componentType":5126,
			"count":8,
			"max":[
				30.554187774658203,
				67.85847473144531,
				-20.314598083496094
			],
			"min":[
				-30.554187774658203,
				41.02564239501953,
				-41.90635681152344
			],
			"type":"VEC3"
		},
		{
			"bufferView":29,
			"componentType":5126,
			"count":8,
			"type":"VEC3"
		},
		{
			"bufferView":30,
			"componentType":5121,
			"count":8,
			"normalized":true,
			"type":"VEC4"
		},
		{
			"bufferView":31,
			"componentType":5123,
			"count":8,
			"normalized":true,
			"type":"VEC4"
		},
		{
			"bufferView":32,
			"componentType":5121,
			"count":8,
			"type":"VEC4"
		},
		{
			"bufferView":33,
			"componentType":5126,
			"count":8,
			"type":"VEC4"
		},
		{
			"bufferView":34,
			"componentType":5123,
			"count":12,
			"type":"SCALAR"
		},
		{
			"bufferView":35,
			"componentType":5126,
			"count":21,
			"type":"MAT4"
		},
		{
			"bufferView":36,
			"componentType":5126,
			"count":41,
			"max":[
				1.6666666666666667
			],
			"min":[
				0
			],
			"type":"SCALAR"
		},
		{
			"bufferView":37,
			"componentType":5126,
			"count":41,
			"type":"VEC3"
		},
		{
			"bufferView":38,
			"componentType":5126,
			"count":2,
			"max":[
				1.6666666666666667
			],
			"min":[
				0
			],
			"type":"SCALAR"
		},
		{
			"bufferView":39,
			"componentType":5126,
			"count":2,
			"type":"VEC4"
		},
		{
			"bufferView":40,
			"componentType":5126,
			"count":2,
			"type":"VEC3"
		},
		{
			"bufferView":41,
			"componentType":5126,
			"count":2,
			"type":"VEC3"
		},
		{
			"bufferView":42,
			"componentType":5126,
			"count":41,
			"type":"VEC4"
		},
		{
			"bufferView":43,
			"componentType":5126,
			"count":2,
			"type":"VEC3"
		},
		{
			"bufferView":44,
			"componentType":5126,
			"count":2,
			"type":"VEC3"
		},
		{
			"bufferView":45,
			"componentType":5126,
			"count":41,
			"type":"VEC4"
		},
		{
			"bufferView":46,
			"componentType":5126,
			"count":2,
			"type":"VEC3"
		},
		{
			"bufferView":47,
			"componentType":5126,
			"count":2,
			"type":"VEC3"
		},
		{
			"bufferView":48,
			"componentType":5126,
			"count":41,
			"type":"VEC4"
		},
		{
			"bufferView":49,
			"componentType":5126,
			"count":2,
			"type":"VEC3"
		},
		{
			"bufferView":50,
			"componentType":5126,
			"count":2,
			"type":"VEC3"
		},
		{
			"bufferView":51,
			"componentType":5126,
			"count":41,
			"type":"VEC4"
		},
		{
			"bufferView":52,
			"componentType":5126,
			"count":2,
			"type":"VEC3"
		},
		{
			"bufferView":53,
			"componentType":5126,
			"count":2,
			"type":"VEC3"
		},
		{
			"bufferView":54,
			"componentType":5126,
			"count":41,
			"type":"VEC4"
		},
		{
			"bufferView":55,
			"componentType":5126,
			"count":2,
			"type":"VEC3"
		},
		{
			"bufferView":56,
			"componentType":5126,
			"count":2,
			"type":"VEC3"
		},
		{
			"bufferView":57,
			"componentType":5126,
			"count":41,
			"type":"VEC4"
		},
		{
			"bufferView":58,
			"componentType":5126,
			"count":2,
			"type":"VEC3"
		},
		{
			"bufferView":59,
			"componentType":5126,
			"count":2,
			"type":"VEC3"
		},
		{
			"bufferView":60,
			"componentType":5126,
			"count":41,
			"type":"VEC4"
		},
		{
			"bufferView":61,
			"componentType":5126,
			"count":2,
			"type":"VEC3"
		},
		{
			"bufferView":62,
			"componentType":5126,
			"count":2,
			"type":"VEC3"
		},
		{
			"bufferView":63,
			"componentType":5126,
			"count":2,
			"type":"VEC4"
		},
		{
			"bufferView":64,
			"componentType":5126,
			"count":2,
			"type":"VEC3"
		},
		{
			"bufferView":65,
			"componentType":5126,
			"count":2,
			"type":"VEC3"
		},
		{
			"bufferView":66,
			"componentType":5126,
			"count":41,
			"type":"VEC4"
		},
		{
			"bufferView":67,
			"componentType":5126,
			"count":2,
			"type":"VEC3"
		},
		{
			"bufferView":68,
			"componentType":5126,
			"count":2,
			"type":"VEC3"
		},
		{
			"bufferView":69,
			"componentType":5126,
			"count":41,
			"type":"VEC4"
		},
		{
			"bufferView":70,
			"componentType":5126,
			"count":2,
			"type":"VEC3"
		},
		{
			"bufferView":71,
			"componentType":5126,
			"count":2,
			"type":"VEC3"
		},
		{
			"bufferView":72,
			"componentType":5126,
			"count":41,
			"type":"VEC4"
		},
		{
			"bufferView":73,
			"componentType":5126,
			"count":2,
			"type":"VEC3"
		},
		{
			"bufferView":74,
			"componentType":5126,
			"count":2,
			"type":"VEC3"
		},
		{
			"bufferView":75,
			"componentType":5126,
			"count":41,
			"type":"VEC4"
		},
		{
			"bufferView":76,
			"componentType":5126,
			"count":2,
			"type":"VEC3"
		},
		{
			"bufferView":77,
			"componentType":5126,
			"count":2,
			"type":"VEC3"
		},
		{
			"bufferView":78,
			"componentType":5126,
			"count":41,
			"type":"VEC4"
		},
		{
			"bufferView":79,
			"componentType":5126,
			"count":2,
			"type":"VEC3"
		},
		{
			"bufferView":80,
			"componentType":5126,
			"count":2,
			"type":"VEC3"
		},
		{
			"bufferView":81,
			"componentType":5126,
			"count":41,
			"type":"VEC4"
		},
		{
			"bufferView":82,
			"componentType":5126,
			"count":2,
			"type":"VEC3"
		},
		{
			"bufferView":83,
			"componentType":5126,
			"count":41,
			"type":"VEC4"
		},
		{
			"bufferView":84,
			"componentType":5126,
			"count":2,
			"type":"VEC3"
		},
		{
			"bufferView":85,
			"componentType":5126,
			"count":2,
			"type":"VEC3"
		},
		{
			"bufferView":86,
			"componentType":5126,
			"count":41,
			"type":"VEC4"
		},
		{
			"bufferView":87,
			"componentType":5126,
			"count":2,
			"type":"VEC3"
		},
		{
			"bufferView":88,
			"componentType":5126,
			"count":2,
			"type":"VEC3"
		},
		{
			"bufferView":89,
			"componentType":5126,
			"count":41,
			"type":"VEC4"
		},
		{
			"bufferView":90,
			"componentType":5126,
			"count":2,
			"type":"VEC3"
		},
		{
			"bufferView":91,
			"componentType":5126,
			"count":2,
			"type":"VEC3"
		},
		{
			"bufferView":92,
			"componentType":5126,
			"count":41,
			"type":"VEC4"
		},
		{
			"bufferView":93,
			"componentType":5126,
			"count":2,
			"type":"VEC3"
		},
		{
			"bufferView":94,
			"componentType":5126,
			"count":2,
			"type":"VEC3"
		},
		{
			"bufferView":95,
			"componentType":5126,
			"count":41,
			"type":"VEC4"
		},
		{
			"bufferView":96,
			"componentType":5126,
			"count":2,
			"type":"VEC3"
		},
		{
			"bufferView":97,
			"componentType":5126,
			"count":2,
			"type":"VEC3"
		},
		{
			"bufferView":98,
			"componentType":5126,
			"count":41,
			"type":"VEC4"
		},
		{
			"bufferView":99,
			"componentType":5126,
			"count":2,
			"type":"VEC3"
		}
	],
	"bufferViews":[
		{
			"buffer":0,
			"byteLength":384,
			"byteOffset":0,
			"target":34962
		},
		{
			"buffer":0,
			"byteLength":384,
			"byteOffset":384,
			"target":34962
		},
		{
			"buffer":0,
			"byteLength":128,
			"byteOffset":768,
			"target":34962
		},
		{
			"buffer":0,
			"byteLength":256,
			"byteOffset":896,
			"target":34962
		},
		{
			"buffer":0,
			"byteLength":128,
			"byteOffset":1152,
			"target":34962
		},
		{
			"buffer":0,
			"byteLength":512,
			"byteOffset":1280,
			"target":34962
		},
		{
			"buffer":0,
			"byteLength":84,
			"byteOffset":1792,
			"target":34963
		},
		{
			"buffer":0,
			"byteLength":5088,
			"byteOffset":1876,
			"target":34962
		},
		{
			"buffer":0,
			"byteLength":5088,
			"byteOffset":6964,
			"target":34962
		},
		{
			"buffer":0,
			"byteLength":1696,
			"byteOffset":12052,
			"target":34962
		},
		{
			"buffer":0,
			"byteLength":3392,
			"byteOffset":13748,
			"target":34962
		},
		{
			"buffer":0,
			"byteLength":1696,
			"byteOffset":17140,
			"target":34962
		},
		{
			"buffer":0,
			"byteLength":6784,
			"byteOffset":18836,
			"target":34962
		},
		{
			"buffer":0,
			"byteLength":1320,
			"byteOffset":25620,
			"target":34963
		},
		{
			"buffer":0,
			"byteLength":15924,
			"byteOffset":26940,
			"target":34962
		},
		{
			"buffer":0,
			"byteLength":15924,
			"byteOffset":42864,
			"target":34962
		},
		{
			"buffer":0,
			"byteLength":5308,
			"byteOffset":58788,
			"target":34962
		},
		{
			"buffer":0,
			"byteLength":10616,
			"byteOffset":64096,
			"target":34962
		},
		{
			"buffer":0,
			"byteLength":5308,
			"byteOffset":74712,
			"target":34962
		},
		{
			"buffer":0,
			"byteLength":21232,
			"byteOffset":80020,
			"target":34962
		},
		{
			"buffer":0,
			"byteLength":4146,
			"byteOffset":101252,
			"target":34963
		},
		{
			"buffer":0,
			"byteLength":1092,
			"byteOffset":105400,
			"target":34962
		},
		{
			"buffer":0,
			"byteLength":1092,
			"byteOffset":106492,
			"target":34962
		},
		{
			"buffer":0,
			"byteLength":364,
			"byteOffset":107584,
			"target":34962
		},
		{
			"buffer":0,
			"byteLength":728,
			"byteOffset":107948,
			"target":34962
		},
		{
			"buffer":0,
			"byteLength":364,
			"byteOffset":108676,
			"target":34962
		},
		{
			"buffer":0,
			"byteLength":1456,
			"byteOffset":109040,
			"target":34962
		},
		{
			"buffer":0,
			"byteLength":246,
			"byteOffset":110496,
			"target":34963
		},
		{
			"buffer":0,
			"byteLength":96,
			"byteOffset":110744,
			"target":34962
		},
		{
			"buffer":0,
			"byteLength":96,
			"byteOffset":110840,
			"target":34962
		},
		{
			"buffer":0,
			"byteLength":32,
			"byteOffset":110936,
			"target":34962
		},
		{
			"buffer":0,
			"byteLength":64,
			"byteOffset":110968,
			"target":34962
		},
		{
			"buffer":0,
			"byteLength":32,
			"byteOffset":111032,
			"target":34962
		},
		{
			"buffer":0,
			"byteLength":128,
			"byteOffset":111064,
			"target":34962
		},
		{
			"buffer":0,
			"byteLength":24,
			"byteOffset":111192,
			"target":34963
		},
		{
			"buffer":0,
			"byteLength":1344,
			"byteOffset":111216
		},
		{
			"buffer":0,
			"byteLength":164,
			"byteOffset":112560
		},
		{
			"buffer":0,
			"byteLength":492,
			"byteOffset":112724
		},
		{
			"buffer":0,
			"byteLength":8,
			"byteOffset":113216
		},
		{
			"buffer":0,
			"byteLength":32,
			"byteOffset":113224
		},
		{
			"buffer":0,
			"byteLength":24,
			"byteOffset":113256
		},
		{
			"buffer":0,
			"byteLength":24,
			"byteOffset":113280
		},
		{
			"buffer":0,
			"byteLength":656,
			"byteOffset":113304
		},
		{
			"buffer":0,
			"byteLength":24,
			"byteOffset":113960
		},
		{
			"buffer":0,
			"byteLength":24,
			"byteOffset":113984
		},
		{
			"buffer":0,
			"byteLength":656,
			"byteOffset":114008
		},
		{
			"buffer":0,
			"byteLength":24,
			"byteOffset":114664
		},
		{
			"buffer":0,
			"byteLength":24,
			"byteOffset":114688
		},
		{
			"buffer":0,
			"byteLength":656,
			"byteOffset":114712
		},
		{
			"buffer":0,
			"byteLength":24,
			"byteOffset":115368
		},
		{
			"buffer":0,
			"byteLength":24,
			"byteOffset":115392
		},
		{
			"buffer":0,
			"byteLength":656,
			"byteOffset":115416
		},
		{
			"buffer":0,
			"byteLength":24,
			"byteOffset":116072
		},
		{
			"buffer":0,
			"byteLength":24,
			"byteOffset":116096
		},
		{
			"buffer":0,
			"byteLength":656,
			"byteOffset":116120
		},
		{
			"buffer":0,
			"byteLength":24,
			"byteOffset":116776
		},
		{
			"buffer":0,
			"byteLength":24,
			"byteOffset":116800
		},
		{
			"buffer":0,
			"byteLength":656,
			"byteOffset":116824
		},
		{
			"buffer":0,
			"byteLength":24,
			"byteOffset":117480
		},
		{
			"buffer":0,
			"byteLength":24,
			"byteOffset":117504
		},
		{
			"buffer":0,
			"byteLength":656,
			"byteOffset":117528
		},
		{
			"buffer":0,
			"byteLength":24,
			"byteOffset":118184
		},
		{
			"buffer":0,
			"byteLength":24,
			"byteOffset":118208
		},
		{
			"buffer":0,
			"byteLength":32,
			"byteOffset":118232
		},
		{
			"buffer":0,
			"byteLength":24,
			"byteOffset":118264
		},
		{
			"buffer":0,
			"byteLength":24,
			"byteOffset":118288
		},
		{
			"buffer":0,
			"byteLength":656,
			"byteOffset":118312
		},
		{
			"buffer":0,
			"byteLength":24,
			"byteOffset":118968
		},
		{
			"buffer":0,
			"byteLength":24,
			"byteOffset":118992
		},
		{
			"buffer":0,
			"byteLength":656,
			"byteOffset":119016
		},
		{
			"buffer":0,
			"byteLength":24,
			"byteOffset":119672
		},
		{
			"buffer":0,
			"byteLength":24,
			"byteOffset":119696
		},
		{
			"buffer":0,
			"byteLength":656,
			"byteOffset":119720
		},
		{
			"buffer":0,
			"byteLength":24,
			"byteOffset":120376
		},
		{
			"buffer":0,
			"byteLength":24,
			"byteOffset":120400
		},
		{
			"buffer":0,
			"byteLength":656,
			"byteOffset":120424
		},
		{
			"buffer":0,
			"byteLength":24,
			"byteOffset":121080
		},
		{
			"buffer":0,
			"byteLength":24,
			"byteOffset":121104
		},
		{
			"buffer":0,
			"byteLength":656,
			"byteOffset":121128
		},
		{
			"buffer":0,
			"byteLength":24,
			"byteOffset":121784
		},
		{
			"buffer":0,
			"byteLength":24,
			"byteOffset":121808
		},
		{
			"buffer":0,
			"byteLength":656,
			"byteOffset":121832
		},
		{
			"buffer":0,
			"byteLength":24,
			"byteOffset":122488
		},
		{
			"buffer":0,
			"byteLength":656,
			"byteOffset":122512
		},
		{
			"buffer":0,
			"byteLength":24,
			"byteOffset":123168
		},
		{
			"buffer":0,
			"byteLength":24,
			"byteOffset":123192
		},
		{
			"buffer":0,
			"byteLength":656,
			"byteOffset":123216
		},
		{
			"buffer":0,
			"byteLength":24,
			"byteOffset":123872
		},
		{
			"buffer":0,
			"byteLength":24,
			"byteOffset":123896
		},
		{
			"buffer":0,
			"byteLength":656,
			"byteOffset":123920
		},
		{
			"buffer":0,
			"byteLength":24,
			"byteOffset":124576
		},
		{
			"buffer":0,
			"byteLength":24,
			"byteOffset":124600
		},
		{
			"buffer":0,
			"byteLength":656,
			"byteOffset":124624
		},
		{
			"buffer":0,
			"byteLength":24,
			"byteOffset":125280
		},
		{
			"buffer":0,
			"byteLength":24,
			"byteOffset":125304
		},
		{
			"buffer":0,
			"byteLength":656,
			"byteOffset":125328
		},
		{
			"buffer":0,
			"byteLength":24,
			"byteOffset":125984
		},
		{
			"buffer":0,
			"byteLength":24,
			"byteOffset":126008
		},
		{
			"buffer":0,
			"byteLength":656,
			"byteOffset":126032
		},
		{
			"buffer":0,
			"byteLength":24,
			"byteOffset":126688
		}
	],
	"buffers":[
		{
			"byteLength":126712,
			"uri":"RobotBug.bin"
		}
	]
}
